# Blender v2.93.5 OBJ File: 'd6.blend'
# www.blender.org
mtllib d6.mtl
o D6_Object.008
v 1.690363 1.507489 1.618134
v 1.637033 1.559901 1.618159
v 1.637576 1.507188 1.671190
v -1.683475 1.478507 1.627610
v -1.630593 1.479110 1.680350
v -1.631194 1.531824 1.627305
v 1.628219 1.499339 -1.702864
v 1.627961 1.552355 -1.650109
v 1.681291 1.499943 -1.650136
v -1.639950 1.471262 -1.693704
v -1.692546 1.470958 -1.640658
v -1.640266 1.524276 -1.640964
v 1.666021 -1.814026 1.625925
v 1.718418 -1.760707 1.625650
v 1.665690 -1.761009 1.678723
v -1.602148 -1.842103 1.635086
v -1.602421 -1.789088 1.687898
v -1.655420 -1.789691 1.635127
v 1.656949 -1.821571 -1.642344
v 1.656332 -1.768858 -1.695333
v 1.709346 -1.768255 -1.642619
v -1.611219 -1.849651 -1.633183
v -1.664491 -1.797238 -1.633142
v -1.611838 -1.796937 -1.686172
vt 0.165900 0.035200
vt 0.165900 0.035200
vt 0.165900 0.035200
vt 0.028800 0.035200
vt 0.028800 0.035200
vt 0.028800 0.035200
vt 0.027000 0.964800
vt 0.027000 0.964700
vt 0.027000 0.964700
vt 0.027000 0.672900
vt 0.027000 0.672900
vt 0.027000 0.672900
vt 0.165900 0.172400
vt 0.165900 0.172400
vt 0.165900 0.172400
vt 0.028800 0.172300
vt 0.028800 0.172300
vt 0.028800 0.172400
vt 0.027000 0.828200
vt 0.027000 0.828200
vt 0.027000 0.828200
vt 0.027000 0.809400
vt 0.027000 0.809400
vt 0.027000 0.809400
vt 0.167800 0.186700
vt 0.033100 0.186700
vt 0.033100 0.321400
vt 0.167800 0.321400
vt 0.027000 0.519400
vt 0.027000 0.654100
vt 0.161800 0.654100
vt 0.161800 0.519400
vt 0.163600 0.809400
vt 0.163600 0.672900
vt 0.169000 0.476700
vt 0.169000 0.340800
vt 0.033100 0.340800
vt 0.033100 0.476700
vt 0.163600 0.964800
vt 0.163600 0.828200
vt 0.163600 0.964800
vt 0.033100 0.476700
vt 0.169000 0.476700
vt 0.163600 0.672900
vt 0.163600 0.809400
vt 0.169000 0.340800
vt 0.033100 0.340800
vt 0.163600 0.828200
vn 0.5739 0.5837 0.5743
vn -0.5817 0.5737 0.5767
vn 0.5704 0.5807 -0.5808
vn -0.5850 0.5703 -0.5767
vn 0.5840 -0.5710 0.5770
vn -0.5710 -0.5808 0.5801
vn 0.5808 -0.5737 -0.5775
vn -0.5746 -0.5836 -0.5738
vn -0.0086 1.0000 -0.0023
vn 0.0086 -1.0000 0.0023
vn 0.0028 0.0023 1.0000
vn -1.0000 -0.0086 0.0028
vn -0.0028 -0.0023 -1.0000
vn 1.0000 0.0086 -0.0028
vn 0.7009 0.7132 -0.0036
vn -0.0080 0.7053 -0.7088
vn -0.0080 0.7052 -0.7090
vn -0.0080 0.7052 -0.7089
vn -0.7140 0.7001 0.0004
vn -0.0041 0.7093 0.7049
vn -0.0041 0.7092 0.7050
vn 0.0080 -0.7056 0.7086
vn 0.0081 -0.7057 0.7085
vn -0.7013 -0.7128 0.0036
vn 0.0041 -0.7089 -0.7053
vn 0.7132 -0.7009 -0.0004
vn -0.7059 -0.0045 0.7083
vn -0.7055 -0.0044 0.7086
vn -0.7060 -0.0045 0.7082
vn -0.7061 -0.0045 0.7081
vn 0.7094 0.0077 0.7048
vn 0.7089 0.0077 0.7053
vn -0.7101 -0.0077 -0.7041
vn -0.7096 -0.0077 -0.7046
vn -0.7099 -0.0077 -0.7042
vn 0.7048 0.0044 -0.7094
vn 0.7051 0.0044 -0.7091
usemtl 02_-_Default
s 1
f 1/1/1 2/2/1 3/3/1
f 4/4/2 5/5/2 6/6/2
f 7/7/3 8/8/3 9/9/3
f 10/10/4 11/11/4 12/12/4
f 13/13/5 14/14/5 15/15/5
f 16/16/6 17/17/6 18/18/6
f 19/19/7 20/20/7 21/21/7
f 22/22/8 23/23/8 24/24/8
f 8/25/9 12/26/9 6/27/9
f 8/25/9 6/27/9 2/28/9
f 16/29/10 22/30/10 19/31/10
f 16/29/10 19/31/10 13/32/10
f 5/5/11 17/17/11 15/15/11
f 5/5/11 15/15/11 3/3/11
f 11/11/12 23/23/12 18/33/12
f 11/11/12 18/33/12 4/34/12
f 7/35/13 20/36/13 24/37/13
f 7/35/13 24/37/13 10/38/13
f 1/39/14 14/40/14 21/21/14
f 1/39/14 21/21/14 9/9/14
f 1/39/15 9/9/15 8/8/15
f 1/39/15 8/8/15 2/41/15
f 7/35/16 10/38/17 12/42/18
f 7/35/16 12/42/18 8/43/16
f 11/11/19 4/34/19 6/44/19
f 11/11/19 6/44/19 12/12/19
f 5/5/20 3/3/21 2/2/21
f 5/5/20 2/2/21 6/6/20
f 15/15/22 17/17/23 16/16/23
f 15/15/22 16/16/23 13/13/22
f 18/33/24 23/23/24 22/22/24
f 18/33/24 22/22/24 16/45/24
f 24/37/25 20/36/25 19/46/25
f 24/37/25 19/46/25 22/47/25
f 21/21/26 14/40/26 13/48/26
f 21/21/26 13/48/26 19/19/26
f 4/4/27 18/18/28 17/17/29
f 4/4/27 17/17/29 5/5/30
f 14/14/31 1/1/32 3/3/32
f 14/14/31 3/3/32 15/15/31
f 10/10/33 24/24/34 23/23/35
f 10/10/33 23/23/35 11/11/33
f 9/9/36 21/21/37 20/20/37
f 9/9/36 20/20/37 7/7/36
